<svg width="58" height="71" viewBox="0 0 58 71" fill="none" xmlns="http://www.w3.org/2000/svg">
<path d="M35.487 0.156667L57.4101 0.132507L20.6291 36.8948L11.0432 46.4269L0.136688 35.507L35.487 0.156667ZM35.283 32.981C35.5675 32.6052 36.0909 32.7904 36.4882 32.7421L57.3913 32.7474L38.3404 51.7795L27.3775 40.8837L35.283 32.981Z" fill="white"/>
<path d="M16.4498 51.7983L27.3778 40.8837L38.3407 51.7795L38.3863 51.8278L27.3805 62.7316L16.4498 51.7983Z" fill="white"/>
<path d="M27.3805 62.7317L38.3863 51.8279L57.3996 70.86C50.2377 70.8761 43.0786 70.8546 35.9194 70.8707C35.5114 70.962 35.259 70.5888 34.9987 70.358L27.3805 62.7317Z" fill="white"/>
</svg>
